<?xml version="1.0" standalone="no"?>
<!DOCTYPE svg PUBLIC "-//W3C//DTD SVG 20010904//EN"
 "http://www.w3.org/TR/2001/REC-SVG-20010904/DTD/svg10.dtd">
<svg version="1.0" xmlns="http://www.w3.org/2000/svg"
 width="700.000000pt" height="700.000000pt" viewBox="0 0 700.000000 700.000000"
 preserveAspectRatio="xMidYMid meet">
<metadata>
Created by potrace 1.14, written by Peter Selinger 2001-2017
</metadata>
<g transform="translate(0.000000,700.000000) scale(0.100000,-0.100000)"
fill="#000000" stroke="none">
<path d="M3278 6995 c-1 -1 -42 -5 -89 -9 -47 -4 -96 -9 -109 -11 -12 -2 -48
-7 -79 -11 -57 -6 -76 -9 -121 -19 -33 -7 -69 -14 -105 -21 -212 -38 -553
-155 -790 -270 -180 -87 -448 -247 -555 -331 -8 -6 -51 -40 -95 -74 -342 -266
-650 -623 -875 -1014 -47 -83 -170 -327 -170 -340 0 -3 -9 -24 -20 -48 -30
-65 -95 -243 -120 -332 -12 -44 -26 -91 -31 -105 -7 -22 -22 -83 -35 -145 -18
-92 -34 -175 -39 -202 -3 -18 -7 -46 -10 -61 -3 -16 -7 -55 -11 -88 -3 -32 -8
-75 -11 -94 -4 -19 -8 -887 -10 -1928 l-4 -1893 1898 4 c1044 1 1909 6 1923 9
14 4 56 9 93 13 37 3 78 8 90 11 12 2 38 6 57 9 19 3 46 7 60 10 14 3 41 8 60
11 108 19 311 74 450 121 188 64 473 192 614 278 32 19 62 35 67 35 5 0 9 5 9
10 0 6 5 10 10 10 15 0 220 141 330 227 152 118 324 280 450 422 36 41 70 79
76 85 6 6 48 61 94 121 150 197 277 405 383 628 26 53 47 99 47 102 0 2 11 28
24 57 57 127 151 421 182 573 17 81 54 301 59 350 4 33 9 71 11 85 9 47 11
525 4 605 -15 157 -21 210 -25 225 -2 8 -7 35 -10 60 -17 129 -80 384 -136
552 -348 1036 -1168 1857 -2204 2206 -168 57 -420 119 -555 137 -19 3 -46 7
-60 10 -13 2 -52 7 -86 11 -33 3 -74 8 -90 10 -32 5 -540 14 -546 9z"/>
</g>
</svg>
