<svg width="271" height="257" viewBox="0 0 271 257" fill="none" xmlns="http://www.w3.org/2000/svg">
<path d="M248.17 171.473C234.929 197.193 221.49 221.012 200.189 236.388C178.843 251.613 149.472 258.437 121.779 255.905C94.0431 253.222 67.8659 241.377 47.9901 224.063C28.158 206.901 14.6709 184.422 6.93343 160.025C-0.804105 135.628 -2.95544 109.352 6.20423 87.0859C15.5273 64.779 35.998 46.5219 59.5865 30.576C82.968 14.5192 109.467 0.773631 136.416 0.727704C163.202 0.722437 190.231 14.3059 215.52 31.572C240.647 48.8788 263.827 69.7573 269.059 93.9659C274.171 118.367 261.411 145.754 248.17 171.473Z" fill="#FFF6A7"/>
</svg>
