<svg width="506" height="470" viewBox="0 0 506 470" fill="none" xmlns="http://www.w3.org/2000/svg">
<path d="M388.652 72.3111C431.978 106.758 471.536 140.622 491.002 183.535C510.153 226.448 509.211 278.703 491.002 323.659C472.478 368.616 437.001 406.566 393.989 431.38C351.291 456.193 301.372 467.871 250.511 469.038C199.651 470.206 147.848 461.156 109.231 435.175C70.6148 408.902 45.1844 365.988 25.7191 318.988C5.93993 272.28 -7.87411 221.485 4.99807 176.529C17.8703 131.864 57.1147 93.3298 102.638 59.4664C148.162 25.8949 199.651 -2.71381 248.942 0.205443C298.547 3.41663 345.326 37.8639 388.652 72.3111Z" fill="#B0C9A7"/>
</svg>
